<svg width="50" height="50" viewBox="0 0 50 50" fill="none" xmlns="http://www.w3.org/2000/svg">
<rect width="50" height="50" rx="25" fill="#404040"/>
<ellipse cx="12.6098" cy="34.98" rx="3.37912" ry="3.48143" fill="white"/>
<ellipse cx="37.3901" cy="15.0199" rx="3.37912" ry="3.48143" fill="white"/>
<rect x="0.691016" y="0.0899071" width="29.53" height="2.67331" transform="matrix(0.783553 -0.621324 0.598479 0.801139 11.7713 33.6248)" fill="#404040" stroke="white"/>
<rect width="17.2093" height="6.48378" transform="matrix(0.783553 -0.621324 0.598479 0.801139 16.8901 27.3373)" fill="white"/>
<path d="M15.7755 28.6112C15.2797 27.9475 15.404 26.9922 16.0531 26.4775L18.3602 24.6481L23.7179 31.82L21.4108 33.6494C20.7617 34.1641 19.8336 34.0434 19.3378 33.3797L15.7755 28.6112Z" fill="#404040" stroke="white"/>
<path d="M20.5346 22.8885C20.3669 22.6641 20.409 22.341 20.6285 22.1669C20.848 21.9928 21.1619 22.0337 21.3296 22.2581L26.5723 29.2761C26.7399 29.5005 26.6979 29.8236 26.4784 29.9977C26.2588 30.1718 25.945 30.1309 25.7773 29.9065L20.5346 22.8885Z" fill="#404040" stroke="white" stroke-width="0.5"/>
<path d="M23.847 20.3579C23.6793 20.1335 23.7214 19.8104 23.9409 19.6363C24.1604 19.4622 24.4743 19.5031 24.642 19.7275L29.9065 26.7748C30.0742 26.9992 30.0322 27.3223 29.8126 27.4964C29.5931 27.6705 29.2792 27.6296 29.1115 27.4052L23.847 20.3579Z" fill="#404040" stroke="white" stroke-width="0.5"/>
<path d="M27.0008 18.037C26.8331 17.8126 26.8752 17.4895 27.0947 17.3154C27.3142 17.1413 27.6281 17.1822 27.7958 17.4066L33.0133 24.3909C33.181 24.6154 33.139 24.9385 32.9194 25.1125C32.6999 25.2866 32.386 25.2458 32.2183 25.0213L27.0008 18.037Z" fill="#404040" stroke="white" stroke-width="0.5"/>
<ellipse cx="37.39" cy="15.02" rx="2.47802" ry="2.55305" fill="#404040"/>
<ellipse cx="12.6099" cy="34.98" rx="2.47802" ry="2.55305" fill="#404040"/>
</svg>
