<svg width="50" height="50" viewBox="0 0 50 50" fill="none" xmlns="http://www.w3.org/2000/svg">
<rect width="50" height="50" rx="25" fill="#404040"/>
<path d="M39.6886 20.3498H36.0414L35.0278 17.5871C33.9861 14.7467 31.5 12.9117 28.6936 12.9117H20.9571C18.1512 12.9117 15.6646 14.7467 14.6223 17.5871L13.6086 20.3498H9.96211C9.48634 20.3498 9.13729 20.8373 9.25303 21.3401L9.61853 22.9339C9.69955 23.2886 9.99196 23.5376 10.3276 23.5376H11.5502C10.7321 24.3166 10.2052 25.449 10.2052 26.7254V29.9132C10.2052 30.9838 10.5804 31.9501 11.1798 32.6979V36.2888C11.1798 37.4623 12.0528 38.414 13.1292 38.414H15.0786C16.155 38.414 17.0279 37.4623 17.0279 36.2888V34.1636H32.6227V36.2888C32.6227 37.4623 33.4957 38.414 34.5721 38.414H36.5215C37.5979 38.414 38.4708 37.4623 38.4708 36.2888V32.6979C39.0702 31.9507 39.4455 30.9844 39.4455 29.9132V26.7254C39.4455 25.449 38.9186 24.3166 38.101 23.5376H39.3237C39.6593 23.5376 39.9517 23.2886 40.0327 22.9339L40.3982 21.3401C40.5134 20.8373 40.1643 20.3498 39.6886 20.3498ZM18.242 19.1657C18.6861 17.9557 19.7613 17.1621 20.9571 17.1621H28.6936C29.8894 17.1621 30.9646 17.9557 31.4087 19.1657L32.6227 22.475H17.0279L18.242 19.1657ZM15.0786 29.8999C13.9089 29.8999 13.1292 29.0525 13.1292 27.7814C13.1292 26.5102 13.9089 25.6628 15.0786 25.6628C16.2482 25.6628 18.0026 27.5695 18.0026 28.8406C18.0026 30.1118 16.2482 29.8999 15.0786 29.8999ZM34.5721 29.8999C33.4025 29.8999 31.6481 30.1118 31.6481 28.8406C31.6481 27.5695 33.4025 25.6628 34.5721 25.6628C35.7417 25.6628 36.5215 26.5102 36.5215 27.7814C36.5215 29.0525 35.7417 29.8999 34.5721 29.8999Z" fill="white"/>
<path d="M20.7217 13.7912C20.6836 13.1304 20.8562 12.7349 21.1321 12.0324L21.9529 10.7133L24.0048 9.44917L26.2711 9.44917C27.3116 10.4636 27.8411 11.0564 28.5191 12.2367C28.9764 12.9887 29.1475 13.4174 29.3399 14.2307C29.3487 14.3895 29.3526 14.4804 29.3399 14.6704C29.3655 15.1825 29.3716 15.4678 29.3399 15.9894L29.7503 16.869L36.7269 25.6629C37.5278 25.5454 37.9778 25.5525 38.7789 25.6629C39.5059 26.1069 39.8571 26.4056 40.4204 26.982L44.332 32.593L38.7789 35.7759C38.4483 35.8102 38.2677 35.8129 37.9581 35.7759C37.2741 35.6626 36.9163 35.5664 36.3165 35.3362C35.7878 35.0478 35.5179 34.8616 35.0854 34.4567C34.6846 34.162 34.5143 33.9251 34.2646 33.5774C34.018 33.3159 33.9308 33.1174 33.8542 32.6979C33.8283 32.6303 33.818 32.4879 33.8542 31.8185L33.8542 30.9391L33.8542 30.0598L33.4438 28.7408L30.5711 25.2232L26.4672 19.9469C25.4444 19.9835 24.8827 19.9958 24.0048 19.9469C23.046 19.3183 22.5728 18.9421 21.9529 18.1881C21.3521 17.5126 21.0558 17.0715 20.7217 15.9895C20.69 15.3111 20.653 15.0391 20.7217 13.7912Z" fill="#404040"/>
<path d="M21.7142 12.7373C21.0974 14.3449 21.3125 16.3201 22.3862 17.6507C23.4598 18.9813 25.0536 19.2478 26.3509 18.4835L34.6163 28.7268C33.9994 30.3345 34.2145 32.3096 35.2881 33.6402C36.362 34.9708 37.9557 35.2374 39.253 34.473L36.9346 31.5997L38.581 29.5594L40.8993 32.4325C41.5161 30.825 41.3012 28.8496 40.2274 27.519C39.1537 26.1884 37.5599 25.9219 36.2627 26.6863L27.9972 16.4431C28.614 14.8356 28.3991 12.8603 27.3254 11.5297C26.2516 10.1989 24.6578 9.93255 23.3606 10.6969L25.6789 13.57L24.0325 15.6104L21.7142 12.7373Z" fill="white"/>
</svg>
