<svg width="50" height="50" viewBox="0 0 50 50" fill="none" xmlns="http://www.w3.org/2000/svg">
<rect width="50" height="50" rx="25" fill="#404040"/>
<path d="M16.3846 12.6679C16.3833 12.8612 16.4205 13.0529 16.4941 13.2318C16.5676 13.4106 16.6759 13.5731 16.8128 13.7098L19.6601 16.565C19.8472 16.752 20.1004 16.8577 20.3648 16.8592L31.7563 16.8834C32.1454 16.8838 32.5186 16.7298 32.794 16.4552C33.0694 16.1806 33.2244 15.8078 33.2251 15.4187L33.2293 9.99469C33.2292 9.60541 33.0747 9.23187 32.7997 8.95605C32.5246 8.68023 32.1515 8.52467 31.7622 8.52352L20.3753 8.4993C20.1109 8.49929 19.8574 8.60365 19.6698 8.78971L16.8165 11.635C16.6796 11.7699 16.5709 11.9306 16.4967 12.108C16.4226 12.2853 16.3845 12.4756 16.3846 12.6679ZM20.97 11.9401C21.1166 12.0871 21.2164 12.2742 21.2567 12.4778C21.297 12.6814 21.2761 12.8922 21.1965 13.0838C21.117 13.2753 20.9824 13.4388 20.8098 13.5537C20.6372 13.6687 20.4344 13.7298 20.2269 13.7293C20.0194 13.7289 19.8167 13.667 19.6443 13.5514C19.4718 13.4358 19.3375 13.2717 19.2583 13.0798C19.179 12.888 19.1584 12.677 19.199 12.4736C19.2397 12.2702 19.3397 12.0835 19.4865 11.9371C19.6834 11.7408 19.9503 11.6308 20.2285 11.6314C20.5067 11.6319 20.7735 11.743 20.97 11.9401Z" fill="white"/>
<path d="M38.581 24.7436H35.3429L34.4429 22.4102C33.518 20.0113 31.3107 18.4615 28.8189 18.4615H21.9499C19.4587 18.4615 17.2509 20.0113 16.3255 22.4102L15.4255 24.7436H12.1878C11.7654 24.7436 11.4555 25.1553 11.5583 25.5799L11.8828 26.926C11.9547 27.2255 12.2143 27.4359 12.5124 27.4359H13.5979C12.8715 28.0938 12.4036 29.0501 12.4036 30.1282V32.8205C12.4036 33.7247 12.7368 34.5408 13.269 35.1723V38.2051C13.269 39.1962 14.0441 40 14.9998 40H16.7306C17.6863 40 18.4613 39.1962 18.4613 38.2051V36.4102H32.3075V38.2051C32.3075 39.1962 33.0826 40 34.0383 40H35.7691C36.7248 40 37.4998 39.1962 37.4998 38.2051V35.1723C38.032 34.5413 38.3652 33.7252 38.3652 32.8205V30.1282C38.3652 29.0501 37.8974 28.0938 37.1715 27.4359H38.257C38.5551 27.4359 38.8147 27.2255 38.8866 26.926L39.2111 25.5799C39.3134 25.1553 39.0034 24.7436 38.581 24.7436ZM19.5393 23.7435C19.9336 22.7215 20.8882 22.0513 21.9499 22.0513H28.8189C29.8806 22.0513 30.8353 22.7215 31.2296 23.7435L32.3075 26.5384H18.4613L19.5393 23.7435ZM16.7306 32.8093C15.6921 32.8093 14.9998 32.0936 14.9998 31.02C14.9998 29.9465 15.6921 29.2307 16.7306 29.2307C17.769 29.2307 19.3267 30.8411 19.3267 31.9146C19.3267 32.9882 17.769 32.8093 16.7306 32.8093ZM34.0383 32.8093C32.9998 32.8093 31.4421 32.9882 31.4421 31.9146C31.4421 30.8411 32.9998 29.2307 34.0383 29.2307C35.0768 29.2307 35.7691 29.9465 35.7691 31.02C35.7691 32.0936 35.0768 32.8093 34.0383 32.8093Z" fill="white"/>
<path d="M27.7553 11.1028V11.6298L25.3291 12.5843V12.0772L27.7553 11.1028ZM27.7553 12.1468V12.6738L25.3291 13.6284V13.1213L27.7553 12.1468ZM24.4492 10.4888V9.60138H28.6303V10.4888H27.0717V14.6923H26.0077V10.4888H24.4492Z" fill="#404040"/>
</svg>
