<svg width="50" height="50" viewBox="0 0 50 50" fill="none" xmlns="http://www.w3.org/2000/svg">
<rect width="50" height="50" rx="25" fill="#404040"/>
<path d="M9.06004 22.2988L10.5235 21.7371L11.2088 23.9558L8.07915 25.1572L8.38154 23.0789C8.42846 22.7481 8.69626 22.4385 9.06004 22.2988ZM12.5418 23.4442L11.8565 21.2254L14.1114 20.3598C14.3808 20.2564 14.6676 20.26 14.8913 20.3707L17.3571 21.5958L12.5418 23.4442ZM19.6636 20.7362L15.9943 18.9132C15.3261 18.5802 14.4654 18.5694 13.6545 18.8806L8.60317 20.8197C7.51182 21.2386 6.70215 22.1673 6.55933 23.1631L6.14722 26.0126C5.5534 26.4835 5.25177 27.1965 5.44522 27.8228L6.24474 30.4114C6.37109 30.8205 6.87028 30.9986 7.36181 30.8099L8.28655 30.4549C8.82169 31.4232 10.1656 31.8018 11.4874 31.2944C12.8093 30.787 13.6592 29.5662 13.5462 28.4359L17.1729 27.0438C17.7081 28.012 19.052 28.3907 20.3738 27.8833C21.6957 27.3758 22.5456 26.1551 22.4325 25.0248L23.3573 24.6698C23.8488 24.4811 24.1438 23.9982 24.0175 23.5891L23.6748 22.4797C23.2094 20.9728 21.4702 20.2496 19.6636 20.7362ZM18.3163 25.7776C18.3299 25.6166 18.3794 25.4539 18.4621 25.2988C18.5448 25.1437 18.6589 24.9994 18.7979 24.8741C18.9369 24.7489 19.098 24.6453 19.2717 24.5694C19.4455 24.4934 19.6285 24.4467 19.8101 24.4317C19.9917 24.4168 20.1683 24.4341 20.3297 24.4825C20.4911 24.5309 20.6339 24.6096 20.75 24.7138C20.8661 24.8181 20.9531 24.9459 21.006 25.0899C21.0588 25.2339 21.0765 25.3911 21.0579 25.5524C21.0444 25.7134 20.9948 25.8761 20.9121 26.0312C20.8294 26.1863 20.7153 26.3307 20.5763 26.4559C20.4373 26.5811 20.2763 26.6847 20.1025 26.7606C19.9288 26.8366 19.7458 26.8834 19.5641 26.8983C19.3825 26.9132 19.2059 26.8959 19.0445 26.8475C18.8832 26.7991 18.7403 26.7204 18.6242 26.6162C18.5081 26.5119 18.4211 26.3841 18.3683 26.2401C18.3154 26.0961 18.2977 25.9389 18.3163 25.7776ZM10.4595 27.9662C10.813 27.8305 11.1882 27.8173 11.5024 27.9294C11.8166 28.0415 12.0442 28.2697 12.1351 28.564C12.226 28.8582 12.1727 29.1943 11.987 29.4983C11.8013 29.8023 11.4983 30.0493 11.1448 30.185C10.7913 30.3207 10.4161 30.334 10.1019 30.2219C9.78765 30.1098 9.56006 29.8815 9.46919 29.5873C9.37831 29.2931 9.43159 28.957 9.61731 28.653C9.80303 28.349 10.106 28.1019 10.4595 27.9662Z" fill="white"/>
<path d="M34.0855 22.4939V23.7838H32.1405V21.6461V21.2644L31.8861 20.9797L29.0558 17.8131L34.0855 22.4939ZM38.1996 25.7476V24.713H39.0203H40.8278C39.7524 24.9175 38.829 25.5411 38.1996 26.399V25.7476ZM44.9999 26.399C44.3705 25.5411 43.4471 24.9175 42.3717 24.713H44.9277H44.9999V26.399ZM37.9678 26.7476C37.8783 26.8967 37.797 27.0513 37.7247 27.2107H30.9091C30.8368 27.0512 30.7557 26.8966 30.6662 26.7476H37.1996H37.9678ZM25.6555 29.1209C25.6555 28.2221 26.319 27.6044 27.0336 27.6044C27.7484 27.6044 28.4107 28.2212 28.4107 29.1209C28.4107 30.0206 27.7484 30.6375 27.0336 30.6375C26.319 30.6375 25.6555 30.0198 25.6555 29.1209ZM40.2226 29.1209C40.2226 28.2212 40.8849 27.6044 41.5998 27.6044C42.3146 27.6044 42.9769 28.2212 42.9769 29.1209C42.9769 30.0206 42.3146 30.6375 41.5998 30.6375C40.8849 30.6375 40.2226 30.0206 40.2226 29.1209Z" fill="#404040" stroke="white" stroke-width="2"/>
</svg>
