<svg width="50" height="50" viewBox="0 0 50 50" fill="none" xmlns="http://www.w3.org/2000/svg">
<rect width="50" height="50" rx="25" fill="#404040"/>
<path d="M43.0769 15.8388C43.0769 15.1641 42.596 14.6154 42.0049 14.6154H35.711C35.1199 14.6154 34.639 15.1641 34.639 15.8388V22.8751H32.3908C30.8113 22.8751 29.2191 22.5054 27.6582 21.7765C26.2932 21.1395 24.4716 21.1395 23.1054 21.7765C21.5445 22.5054 19.9523 22.8751 18.3729 22.8751H16.1301V15.8388C16.1301 15.1641 15.6493 14.6154 15.0581 14.6154H8.76427C8.17311 14.6154 7.69226 15.1641 7.69226 15.8388V33.3919C7.69226 33.4667 7.7003 33.5391 7.7116 33.6102C7.68196 33.7042 7.69209 33.8109 7.75473 33.8931C7.77057 33.9138 7.79171 33.9253 7.81109 33.9401C7.98797 34.3388 8.34663 34.6154 8.76427 34.6154H15.0581C15.4758 34.6154 15.8345 34.3388 16.0113 33.9401C16.0307 33.9253 16.0518 33.9138 16.0677 33.8931C16.1303 33.8109 16.1404 33.7042 16.1108 33.6102C16.1221 33.5391 16.1301 33.4667 16.1301 33.3919V26.3534H18.3677C19.9489 26.3534 21.543 26.7239 23.1059 27.4546C23.788 27.7735 24.575 27.9419 25.3819 27.9419C26.1888 27.9419 26.9758 27.7735 27.658 27.4546C29.2207 26.7239 30.8148 26.3534 32.396 26.3534H34.639V33.3919C34.639 33.4667 34.647 33.5391 34.6583 33.6102C34.6287 33.7042 34.6388 33.8109 34.7015 33.8931C34.7173 33.9138 34.7385 33.9253 34.7578 33.9401C34.9347 34.3388 35.2934 34.6154 35.711 34.6154H42.0049C42.4225 34.6154 42.7812 34.3388 42.9581 33.9401C42.9774 33.9253 42.9986 33.9138 43.0144 33.8931C43.077 33.8109 43.0872 33.7042 43.0575 33.6102C43.0688 33.5391 43.0769 33.4667 43.0769 33.3919V15.8388ZM39.8579 30.6787V27.6219L42.5325 30.0208V33.0776L39.8579 30.6787ZM37.8581 19.21L35.1834 21.6089V18.5521L37.8581 16.1531V19.21ZM35.1834 23.1703V22.375L37.8581 19.976V23.0329L35.1834 25.4318V23.1703ZM35.1834 26.1979L37.8581 23.7989V26.8558L35.1834 29.2547V26.1979ZM35.1834 30.0208L37.8581 27.6218V30.6787L35.1834 33.0776V30.0208ZM38.4025 15.2059H39.3135V34.0249H38.4025V15.2059ZM39.8579 23.799L42.5325 26.1979V29.2547L39.8579 26.8558V23.799ZM39.8579 23.0329V19.9761L42.5325 22.375V25.4318L39.8579 23.0329ZM42.5325 21.6089L39.8579 19.21V16.1532L42.5325 18.5521V21.6089ZM42.5325 15.8388V17.786L39.8579 15.3871V15.2059H42.0049C42.2958 15.2059 42.5325 15.4899 42.5325 15.8388ZM35.711 15.2059H37.8581V15.3871L35.1834 17.786V15.8388C35.1834 15.4899 35.4201 15.2059 35.711 15.2059ZM12.9112 30.6787V27.6219L15.5858 30.0208V33.0776L12.9112 30.6787ZM8.23664 22.375L10.9114 19.976V23.0329L8.23664 25.4318V22.375ZM8.23664 26.1979L10.9114 23.7989V26.8558L8.23664 29.2547V26.1979ZM10.9114 19.21L8.23664 21.6089V18.5521L10.9114 16.1531V19.21ZM8.23664 30.0208L10.9114 27.6218V30.6787L8.23664 33.0776V30.0208ZM11.4557 15.2059H12.3668V34.0249H11.4557V15.2059ZM15.5858 21.6089L12.9112 19.21V16.1532L15.5858 18.5521V21.6089ZM12.9112 26.8558V23.799L15.5858 26.1979V29.2547L12.9112 26.8558ZM12.9112 23.0329V19.9761L15.5858 22.375V23.1703V25.4318L12.9112 23.0329ZM15.5858 15.8388V17.786L12.9112 15.3871V15.2059H15.0581C15.349 15.2059 15.5858 15.4899 15.5858 15.8388ZM8.76427 15.2059H10.9114V15.3871L8.23664 17.786V15.8388C8.23664 15.4899 8.47334 15.2059 8.76427 15.2059ZM8.33422 33.7562L10.9114 31.4447V34.0249H8.76427C8.58658 34.0249 8.42988 33.9182 8.33422 33.7562ZM15.0581 34.0249H12.9112V31.4448L15.4882 33.7562C15.3925 33.9182 15.2358 34.0249 15.0581 34.0249ZM32.396 25.7629C30.7402 25.7629 29.0736 26.1495 27.4426 26.9125C26.2132 27.4869 24.5505 27.4869 23.3214 26.9125C21.6901 26.1495 20.0234 25.7629 18.3677 25.7629H16.1301V23.4656H18.3729C20.0268 23.4656 21.6914 23.0798 23.3206 22.3191C24.5515 21.7448 26.2126 21.7448 27.443 22.3191C29.0723 23.0798 30.7369 23.4656 32.3908 23.4656H34.639V25.7629H32.396ZM35.281 33.7562L37.8581 31.4447V34.0249H35.711C35.5333 34.0249 35.3766 33.9182 35.281 33.7562ZM42.0049 34.0249H39.8579V31.4448L42.4349 33.7562C42.3393 33.9182 42.1826 34.0249 42.0049 34.0249Z" fill="white"/>
</svg>
