<svg width="30" height="30" viewBox="0 0 30 30" fill="none" xmlns="http://www.w3.org/2000/svg">
<path fill-rule="evenodd" clip-rule="evenodd" d="M15 0C23.2845 0 30 6.7155 30 15C30.0053 18.4618 28.8081 21.8181 26.613 24.495L26.643 24.528L26.445 24.696C25.0383 26.3598 23.2854 27.6965 21.3086 28.6126C19.3318 29.5287 17.1788 30.0022 15 30C10.575 30 6.60001 28.0845 3.85501 25.0395L3.55501 24.6945L3.35701 24.5295L3.38701 24.4935C1.19215 21.817 -0.00505113 18.4613 1.60191e-05 15C1.60191e-05 6.7155 6.71551 0 15 0ZM15 22.5C12.21 22.5 9.6885 23.388 7.81051 24.609C9.88413 26.1649 12.4076 27.0041 15 27C17.5924 27.0041 20.1159 26.1649 22.1895 24.609C20.0435 23.2339 17.5487 22.502 15 22.5ZM15 3C12.7418 2.99994 10.5294 3.63707 8.61709 4.83817C6.70479 6.03928 5.17022 7.75559 4.18975 9.78985C3.20928 11.8241 2.82272 14.0937 3.07449 16.3379C3.32626 18.582 4.20614 20.7096 5.61301 22.476C8.04451 20.7315 11.3625 19.5 15 19.5C18.6375 19.5 21.9555 20.7315 24.387 22.476C25.7939 20.7096 26.6737 18.582 26.9255 16.3379C27.1773 14.0937 26.7907 11.8241 25.8102 9.78985C24.8298 7.75559 23.2952 6.03928 21.3829 4.83817C19.4706 3.63707 17.2582 2.99994 15 3ZM15 6C16.5913 6 18.1174 6.63214 19.2426 7.75736C20.3679 8.88257 21 10.4087 21 12C21 13.5913 20.3679 15.1174 19.2426 16.2426C18.1174 17.3679 16.5913 18 15 18C13.4087 18 11.8826 17.3679 10.7574 16.2426C9.63215 15.1174 9.00001 13.5913 9.00001 12C9.00001 10.4087 9.63215 8.88257 10.7574 7.75736C11.8826 6.63214 13.4087 6 15 6ZM15 9C14.2044 9 13.4413 9.31607 12.8787 9.87868C12.3161 10.4413 12 11.2043 12 12C12 12.7956 12.3161 13.5587 12.8787 14.1213C13.4413 14.6839 14.2044 15 15 15C15.7956 15 16.5587 14.6839 17.1213 14.1213C17.6839 13.5587 18 12.7956 18 12C18 11.2043 17.6839 10.4413 17.1213 9.87868C16.5587 9.31607 15.7956 9 15 9Z" fill="#8A8A8F"/>
</svg>
